<svg viewBox="0 0 128 102.02" xmlns="http://www.w3.org/2000/svg"><g fill="#b1a533"><path d="m5.61 96.61h-.44z"/><path d="m6 96.39h-.1z"/><path d="m5.17 96.6c0 .07.22.16 0 .2l-1-.1c-.24 0 0 .06 0 .1a3.15 3.15 0 0 0 -.49 0c-.16 0 .1.07.58.15 1.07-.06 3.74.05.91-.35z"/><path d="m7.12 96.55-1.28-.06c-.13 0-.31.07-.18.13a9.14 9.14 0 0 0 1.46-.07z"/><path d="m106.72 96.78s0 0 .24 0h-.24s0 .06-.1.09c.85-.17 1.85-.32 2.81-.46l.36-.11a43.7 43.7 0 0 0 -6.74 1c1.38-.14 2.33-.36 3.67-.52z"/><path d="m110 96.18h.24c-.24-.02-.24-.01-.24 0z"/><path d="m67.37 100a17.6 17.6 0 0 0 -4.08.72 56.59 56.59 0 0 0 7.75-.56q-1.83-.05-3.67-.16z"/><path d="m56.78 101.82a11.88 11.88 0 0 0 4.77-.1h-4.36z"/><path d="m58.81 101.22a13.48 13.48 0 0 0 4.48-.51 29.09 29.09 0 0 0 -4.48.51z"/><path d="m91.9 90a8.69 8.69 0 0 1 2.1-.14 6.63 6.63 0 0 1 .69-.45h-.2c-1.13-.07-2.29-.11-3.45-.13a6.14 6.14 0 0 0 -1.31.33z"/><path d="m94 89.86c-1.43 1.1 1.48.16 0 0z"/><path d="m86.93 97.36h-.17l-.49.11z"/><path d="m73.33 93.21c1-.08 1.93-.21 2.88-.36a29.52 29.52 0 0 0 -5.57.88c.24 0 .49.13.73.13a4.08 4.08 0 0 1 1.96-.65z"/><path d="m94.55 96.07a71.56 71.56 0 0 0 -7.79 1.3 70.72 70.72 0 0 0 -14.51 1.71c-3.91 1-10.75.29-14.66 2a11.26 11.26 0 0 0 1.21.16 12.67 12.67 0 0 0 -1.62.45c-6.45 0-12.79-.3-19.38-.95-1-.09-1.71.08-2.69 0l-2.93-.27s0 0 0 .05l-12.11-1.07c-2-.21-3.91-.54-5.86-.81a8.21 8.21 0 0 1 -1.21-.37c-2-.44-3.42-.74-5.62-1v-.07l-.89-.1c1.05-.11 3.73-.09.89-.45h.48a7.72 7.72 0 0 0 1.47-.12l-1.33-.09c.08 0 .13-.07.09-.1h.11.35l.14-.06c1.12-.1 2.89-.18 2.55-.32a13.35 13.35 0 0 0 -2 0h-.19c1.22 0 0-.2.73-.25l2.93-.12c4-.12 7.33-.24 11.24-.56h.51c1.89-.14 3.68-.23 5.54-.24l-.37.15a40.13 40.13 0 0 0 4.48-.19c3.66-.44 7.33-1 11.24-1.24 4.1-.25 8-.61 12.2-1.2a44.14 44.14 0 0 1 -5.14.78c-.78 0-1.56 0-2.32.09.78 0 1.56 0 2.32-.09 3-.09 6.1 0 8.42-1.32.25.08.25.21.49.19a14.17 14.17 0 0 0 4.89-.78c0-.14.73-.2.49-.45 1.47-.27 3.18-.43 4.64-.84a6.42 6.42 0 0 0 1.9-.86 54.87 54.87 0 0 1 16.08-1.26 32.78 32.78 0 0 1 4.44.85c-2.09-.13-4.25-.18-6.43-.15-2.12-.4-4.15-.66-5.83 0l-1.17.34c2.36-.22 4.7-.31 7-.34 1.25.24 2.54.55 3.8.77h-.08q-1.48 0-3 0a12.55 12.55 0 0 0 -5.26-.17 4.71 4.71 0 0 0 -.57.18l-1.17.33c1.45-.13 2.9-.21 4.33-.27.89 0 1.78-.06 2.66-.07l1.68.33-.18.07c-.49 0-1.86 1.47-1.13 2 1.88.16 4.14.25 5.93.39.89.06 1.67.14 2.23.2a4.32 4.32 0 0 1 .88.14c.12.22-1.43.19-3 .22a17.6 17.6 0 0 0 -3 .15l1.08.24a9.94 9.94 0 0 0 -1 .23 9.2 9.2 0 0 0 -2.2.1c-1.71.7-3.66.35-5.62.87-1.22.41-2.69 1-4.15 1.6 0 .3-.73.15-.49.46-1.38 0-3 0-3.57.89h-.1a1 1 0 0 0 -.38.12c-2.29-.17-3.89.65-6 1.12a20.35 20.35 0 0 1 -2.19 0 7 7 0 0 0 1.71.07l.48-.1a48.1 48.1 0 0 0 5.38-.79 6.34 6.34 0 0 1 .59-.33h.38l.1-.18c1.69-.43 3.59-.6 5-1a39.38 39.38 0 0 1 8.53-.13c-1.38.22-2.73.48-4.06.77l4.77-.75h2.19l-1.36-.14 2.7-.42a72.69 72.69 0 0 1 14.91.32l-.33.1a28.55 28.55 0 0 0 -6.74.13c1.38 0 2.33-.1 3.66-.07 0 0 0 .08-.1.1.85-.06 1.85-.08 2.81-.05-.31.09-.66.2-1 .32s-1.22.14-2 .23c-3.17.26-6.16.33-9.28.71l-8.29.19zm-82 1h.77-.12a2.93 2.93 0 0 0 -.63-.07zm5.72.38c-1.68-.18-3.89-.19-6-.28 1.73.14 3.97.18 6.02.23zm36.49.45a36.2 36.2 0 0 1 -6.84.57c-.73 0-1.46.36-2.44.31-1.22 0-2 .21-2.93.25l.73.23c-1.71-.18-2.69.32-4.4 0 0 .09-.24.25-.49.23-1.22 0-2.44-.26-3.42-.17-1.22 0-2.44-.1-3.42 0-.25 0-.73.17-1.22.2l-1.79-.1.07.06a13.94 13.94 0 0 0 1.47.09h4.64a99.72 99.72 0 0 0 10.51-.21c.73-.06 1.47-.23 2.2-.3 2.2-.32 4.89-.12 6.35-.86.22-.09.73-.08.98-.3zm2.73-5.06a35 35 0 0 1 -7.86.88 27.83 27.83 0 0 0 -4.4.6c-1.53.35-2.69.79-2.2 1.37 1.21-1.06 5.25-1.2 8.77-1.29s6.54-.23 5.69-1.56zm20.38-3.77a16.47 16.47 0 0 1 -3.18.5q1.59-.29 3.18-.5zm-10.41 6.3c3.18-1 6.6-1.31 9.77-1.91 2.44-.45 5.13.34 7.33-.58v-.43l-.24.13c-.86-.13-1.55-.4-2.27-.55h.13l-.18-.03a4 4 0 0 0 -1.55 0l-.8.19a32.57 32.57 0 0 0 -9 1.56c-1.71.5-3.18 1.24-4.89 1.66a7.15 7.15 0 0 0 1.7-.04z"/><path d="m90 95.76c1.06-.15 2.12-.28 3.19-.38l2.52-.38a38.05 38.05 0 0 1 6.29 0c2.16.14 4.36.35 6.47.58.12-.08.14-.16 0-.28a62 62 0 0 0 -6.86-1.23c-2.29-.28-4.57-.44-6.86-.77h-.11c-2 .51-5.13.06-7.57.65-2.44.75-4.89 1-7.33 1.78 3.47.03 6.82-.24 10.26.03z"/><path d="m61.55 101.72h2.89a50.09 50.09 0 0 0 7.54-.62c-1.8 0-3.6-.13-5.42-.28a23.91 23.91 0 0 0 -5.01.9z"/><path d="m74 100.79c-.67.14-1.33.26-2 .36a68.05 68.05 0 0 0 7.95-.38c4.34-.74 8.68-1.59 13-2.52.49-.1 1-.18 1.47-.26-4 .21-8.07.29-11.94.57a74.87 74.87 0 0 0 -11 1.5l-.4.09a77.47 77.47 0 0 0 9.7-.44q-3.43.57-6.78 1.08z"/><path d="m89 95.91h.7l.81-.13h-.49z"/><path d="m82.05 92h-.05l-2.35.16c-1.09.25-2.24.49-3.4.68a33.45 33.45 0 0 0 5.8-.84z"/><path d="m75.28 88.3h-1l-.44.3h.69z"/><path d="m60.86 91.75c4.33-.75 8.39-1.86 12.41-2.75l.59-.38a22.09 22.09 0 0 0 -7.86 1.62 8.57 8.57 0 0 1 -1.71.7c-2.31.34-4.52.9-6.71 1.34 1.05-.15 2.11-.32 3.19-.52z"/><path d="m120 57.65s9.76 17.66 7.77 30.9-74.92 5-74.92 5 5.58-4.7-4.18-14.78z"/></g><path d="m116.48 56.88 8.17 13.78-7.83-19.76-65 26.81 6.76 17.17-4.32-15.44 7.44 13.65-4.39-15.09 8.4 14-4.71-15.09 8.68 13.67-5.07-15 8.85 14.48-4.81-15.31 9 14.45-5.34-15.5 10.21 14.2-5.3-16.07 9.92 15.38-4.22-16.85 9.47 15.76-5.39-18.87 10.66 17.2-6.48-19.2 12.82 19.58-7.71-21.48 12.18 20.26-7.47-21.52 11.87 18.91-6.65-20.85 10.78 18.58-5.37-19.73 8.85 15.33-4-17.46z" fill="#994b2c" opacity=".28"/><path d="m112.65 59.89 7.27 10.54-6.74-15.26-62.72 23.41 5.81 13.26-3.52-12 6.58 10.46-3.63-11.72 7.48 10.72-4-11.67 7.82 10.43-4.3-11.6 7.89 11.07-4-11.88 8.05 11-4.53-12 9.19 10.8-4.47-12.45 8.88 11.74-3.41-13.05 8.43 12.05-4.41-14.64 9.51 13.14-5.47-14.86 11.4 14.94-6.52-16.62 10.84 15.49-6.34-16.65 10.62 14.46-5.57-16.16 9.56 14.23-4.35-15.33 7.86 11.73-3.18-13.59z" fill="#994b2c" opacity=".28"/><path d="m110.8 53.64 6.93 9.59-6.36-13.93-61.07 22.19 5.49 12.11-3.27-11 6.26 9.53-3.4-10.69 7.13 9.75-3.71-10.67 7.4 9.5-4-10.6 7.52 10.07-3.72-10.87 7.68 10-4.26-11 8.78 9.81-4.2-11.29 8.47 10.68-3.16-12 8 11-4.11-13.4 9.07 12-5.11-13.64 10.84 13.59-6.08-15.18 10.34 14.1-6-15.22 10.14 13.14-5.2-14.76 9.11 13-4.07-14 7.49 10.68z" fill="#994b2c" opacity=".28"/><path d="m107.14 56 6.24 7.3-5.54-10.73-58.84 19.61 4.78 9.32-2.67-8.5 5.61 7.27-2.85-8.27 6.42 7.41-3.14-8.26 6.69 7.2-3.44-8.19 6.79 7.65-3.19-8.45 7 7.64-3.65-8.46 8 7.4-3.57-8.79 7.66 8.09-2.57-9.31 7.24 8.34-3.47-10.41 8.18 9.08-4.39-10.5 9.85 10.29-5.28-11.73 9.31 10.72-5.11-11.72 9.16 10-4.43-11.47 8.19 9.86-3.37-10.87 6.73 8.13z" fill="#994b2c" opacity=".28"/><path d="m49.17 80a21.35 21.35 0 0 1 -1.8-9c.2-4.79 3.8-5.59 3.8-5.59l19.37-7.41-17.77-50.47c-1.18-4.64 2.77-5.94 6-7.19 4.65-1.81 7.4 4.19 7.4 4.19l19.75 47.91s22.77-7.49 26.37-8 4.19 1.84 4.19 1.84l4.2 11.72zm14.35-70.74-.87-2.26a.71.71 0 0 0 -.1-.17c-4.66-6.11-4.72.64-4.71 1.5a.59.59 0 0 0 0 .18l.75 2.39a.64.64 0 0 0 .81.42l3.68-1.2a.64.64 0 0 0 .44-.86z" fill="#5851a2"/><path d="m57.59 7.49c0 12.24 4.69 29.72 11.89 40.21s-1.08 14 0 14.69 15.5.35 4-12.24-15.89-42.66-15.89-42.66z" fill="#010101" opacity=".27"/><path d="m77.13 37.84c.81 6.24 3.16 18.51 1.49 15.79-15.7-14.59-22.5-48-14.49-42s13 26.22 13 26.22z" fill="#fff" opacity=".25"/></svg>